<svg width="124" height="96" viewBox="0 0 124 96" fill="none" xmlns="http://www.w3.org/2000/svg">
<g opacity="0.7">
<path d="M123.763 84.4456H0V84.5049H123.763V84.4456Z" fill="#F2EFEA"/>
<path d="M111.362 88.2621H103.164V88.3214H111.362V88.2621Z" fill="#F2EFEA"/>
<path d="M81.9855 88.9073H79.8345V88.9667H81.9855V88.9073Z" fill="#F2EFEA"/>
<path d="M102.916 86.0607H98.166V86.12H102.916V86.0607Z" fill="#F2EFEA"/>
<path d="M23.676 86.4592H12.9854V86.5185H23.676V86.4592Z" fill="#F2EFEA"/>
<path d="M27.4479 86.4592H25.8811V86.5185H27.4479V86.4592Z" fill="#F2EFEA"/>
<path d="M55.7302 87.4604H32.542V87.5198H55.7302V87.4604Z" fill="#F2EFEA"/>
<path d="M58.6636 73.8658H10.8689C10.4945 73.8651 10.1356 73.7221 9.8711 73.4682C9.60658 73.2143 9.45801 72.8701 9.45801 72.5113V8.12485C9.46127 7.76809 9.61127 7.42696 9.87545 7.17558C10.1396 6.92419 10.4966 6.78284 10.8689 6.78223H58.6636C59.0384 6.78223 59.3979 6.92493 59.663 7.17894C59.9281 7.43296 60.077 7.77748 60.077 8.13671V72.5113C60.077 72.8705 59.9281 73.215 59.663 73.469C59.3979 73.7231 59.0384 73.8658 58.6636 73.8658ZM10.8689 6.82967C10.5109 6.8303 10.1678 6.96703 9.91486 7.20985C9.66194 7.45268 9.51989 7.78175 9.51989 8.12485V72.5113C9.51989 72.8544 9.66194 73.1834 9.91486 73.4263C10.1678 73.6691 10.5109 73.8058 10.8689 73.8064H58.6636C59.0218 73.8058 59.3652 73.6692 59.6185 73.4264C59.8718 73.1837 60.0144 72.8546 60.0151 72.5113V8.12485C60.0144 7.78154 59.8718 7.45247 59.6185 7.20971C59.3652 6.96695 59.0218 6.8303 58.6636 6.82967H10.8689Z" fill="#F2EFEA"/>
<path d="M112.206 73.8658H64.4085C64.0338 73.8651 63.6747 73.7222 63.4098 73.4683C63.1449 73.2145 62.9958 72.8703 62.9951 72.5113V8.12485C62.999 7.76787 63.1496 7.42675 63.4141 7.17543C63.6787 6.92411 64.036 6.78283 64.4085 6.78223H112.206C112.577 6.78346 112.934 6.92509 113.198 7.17641C113.461 7.42773 113.611 7.76849 113.614 8.12485V72.5113C113.614 72.8697 113.466 73.2135 113.202 73.4674C112.938 73.7212 112.58 73.8645 112.206 73.8658ZM64.4085 6.82967C64.0502 6.8303 63.7069 6.96695 63.4536 7.20971C63.2003 7.45247 63.0577 7.78154 63.057 8.12485V72.5113C63.0577 72.8546 63.2003 73.1837 63.4536 73.4264C63.7069 73.6692 64.0502 73.8058 64.4085 73.8064H112.206C112.564 73.8058 112.907 73.6692 113.161 73.4264C113.414 73.1837 113.556 72.8546 113.557 72.5113V8.12485C113.556 7.78154 113.414 7.45247 113.161 7.20971C112.907 6.96695 112.564 6.8303 112.206 6.82967H64.4085Z" fill="#F2EFEA"/>
<path d="M101.852 76.2402C101.852 76.2402 99.9506 72.6821 102.124 69.1571C104.297 65.6321 104.926 64.8114 103.54 64.0902C102.154 63.3691 101.52 66.9036 101.52 66.9036C101.52 66.9036 100.352 64.4722 101.317 61.9221C102.282 59.3721 102.886 55.2328 101.564 54.7892C100.243 54.3456 101.317 59.958 100.168 61.8723C100.168 61.8723 99.2105 59.7374 99.0521 57.6974C98.8937 55.6574 99.1412 52.391 98.1016 51.5536C97.062 50.7162 96.3937 51.2974 97.416 55.8068C98.0297 58.4937 98.3696 61.2313 98.4308 63.9811C98.4308 63.9811 96.1734 58.0651 94.6585 57.8943C93.1437 57.7235 93.1461 59.6378 94.4432 61.2983C95.7402 62.9587 98.2402 65.9381 98.6511 67.4658C98.6511 67.4658 96.1759 63.0157 93.9481 64.382C91.7204 65.7484 95.8887 68.436 97.7476 69.4062C99.6066 70.3764 100.894 76.4703 100.894 76.4703L101.852 76.2402Z" fill="#F2EFEA"/>
<path d="M100.349 77.7083C100.349 77.7083 102.203 74.117 99.9807 70.6276C97.7579 67.1382 97.1168 66.3198 98.4955 65.5821C99.8743 64.8443 100.555 68.3693 100.555 68.3693C100.555 68.3693 101.689 65.9213 100.689 63.3879C99.6886 60.8544 99.0277 56.7198 100.337 56.2596C101.647 55.7995 100.661 61.4261 101.822 63.3238C101.822 63.3238 102.753 61.1889 102.882 59.137C103.01 57.0851 102.718 53.8306 103.748 52.9814C104.778 52.1322 105.449 52.7015 104.491 57.2227C103.915 59.918 103.613 62.6603 103.59 65.4113C103.59 65.4113 105.765 59.4668 107.278 59.2746C108.79 59.0825 108.815 60.9991 107.54 62.6762C106.265 64.3533 103.807 67.3635 103.419 68.9007C103.419 68.9007 105.835 64.4174 108.082 65.7529C110.33 67.0884 106.199 69.8305 104.354 70.8268C102.51 71.8231 101.305 77.929 101.305 77.929L100.349 77.7083Z" fill="#F2EFEA"/>
<path d="M108.894 75.1447H93.592L94.8297 84.5572H107.656L108.894 75.1447Z" fill="#F2EFEA"/>
<path d="M81.5995 15.5732H53.7231V45.1346H81.5995V15.5732Z" fill="#F2EFEA"/>
<path d="M80.4456 16.7451H54.9504V44.0245H80.4456V16.7451Z" fill="#F2EFEA"/>
<path d="M62.1559 16.7451L54.9504 42.606V28.6057L58.2475 16.7451H62.1559Z" fill="white"/>
<path d="M65.3767 16.7451L57.7777 44.0245H56.3445L63.9435 16.7451H65.3767Z" fill="white"/>
<path d="M80.4456 24.1842V38.1868L78.8318 44.0246H74.9233L80.4456 24.1842Z" fill="white"/>
<path d="M68.1561 15.5732H67.166V45.1346H68.1561V15.5732Z" fill="#F2EFEA"/>
<path d="M81.0645 21.5724H54.208V22.5212H81.0645V21.5724Z" fill="#F2EFEA"/>
<path d="M43.4803 15.5732H15.604V45.1346H43.4803V15.5732Z" fill="#F2EFEA"/>
<path d="M42.3269 16.7451H16.8318V44.0245H42.3269V16.7451Z" fill="#F2EFEA"/>
<path d="M24.0373 16.7451L16.8318 42.606V28.6057L20.1288 16.7451H24.0373Z" fill="white"/>
<path d="M27.2575 16.7451L19.6585 44.0245H18.2253L25.8244 16.7451H27.2575Z" fill="white"/>
<path d="M42.3267 24.1842V38.1868L40.7129 44.0246H36.8044L42.3267 24.1842Z" fill="white"/>
<path d="M30.0372 15.5732H29.0471V45.1346H30.0372V15.5732Z" fill="#F2EFEA"/>
<path d="M42.9459 21.5724H16.0894V22.5212H42.9459V21.5724Z" fill="#F2EFEA"/>
<path d="M61.8814 95.1578C88.387 95.1578 109.874 93.9556 109.874 92.4726C109.874 90.9896 88.387 89.7874 61.8814 89.7874C35.3757 89.7874 13.8887 90.9896 13.8887 92.4726C13.8887 93.9556 35.3757 95.1578 61.8814 95.1578Z" fill="#F2EFEA"/>
<path d="M106.471 65.3902H68.4781C68.2507 65.3936 68.0251 65.3509 67.8162 65.2649C67.6072 65.1789 67.4195 65.0515 67.2655 64.8912C67.1115 64.7308 66.9946 64.541 66.9224 64.3343C66.8503 64.1276 66.8246 63.9087 66.8469 63.6918L71.6365 4.80629C71.6799 4.34739 71.8987 3.92005 72.251 3.6065C72.6034 3.29295 73.0642 3.11534 73.545 3.10785H111.535C111.763 3.10449 111.988 3.1472 112.197 3.23318C112.407 3.31916 112.594 3.44648 112.749 3.6068C112.903 3.76712 113.02 3.95684 113.092 4.16354C113.165 4.37024 113.191 4.58926 113.169 4.80629L108.379 63.6918C108.335 64.1505 108.116 64.5775 107.764 64.891C107.412 65.2044 106.951 65.3822 106.471 65.3902Z" fill="#1D2334"/>
<path opacity="0.2" d="M106.471 65.3902H68.4781C68.2507 65.3936 68.0251 65.3509 67.8162 65.2649C67.6072 65.1789 67.4195 65.0515 67.2655 64.8912C67.1115 64.7308 66.9946 64.541 66.9224 64.3343C66.8503 64.1276 66.8246 63.9087 66.8469 63.6918L71.6365 4.80629C71.6799 4.34739 71.8987 3.92005 72.251 3.6065C72.6034 3.29295 73.0642 3.11534 73.545 3.10785H111.535C111.763 3.10449 111.988 3.1472 112.197 3.23318C112.407 3.31916 112.594 3.44648 112.749 3.6068C112.903 3.76712 113.02 3.95684 113.092 4.16354C113.165 4.37024 113.191 4.58926 113.169 4.80629L108.379 63.6918C108.335 64.1505 108.116 64.5775 107.764 64.891C107.412 65.2044 106.951 65.3822 106.471 65.3902Z" fill="white"/>
<path d="M101.324 6.95782H83.1313C83.0518 6.95918 82.9728 6.94441 82.8996 6.91447C82.8265 6.88453 82.7607 6.84011 82.7067 6.78411C82.6528 6.72811 82.6117 6.6618 82.5864 6.58953C82.561 6.51727 82.5518 6.44068 82.5595 6.36479L82.8392 2.92285C82.8545 2.76211 82.9311 2.61243 83.0545 2.50254C83.1778 2.39265 83.3392 2.33029 83.5076 2.32744H101.701C101.78 2.32639 101.859 2.34147 101.932 2.3717C102.005 2.40193 102.071 2.44662 102.125 2.50285C102.178 2.55907 102.219 2.62556 102.244 2.69795C102.269 2.77033 102.278 2.84697 102.27 2.92285L101.99 6.3553C101.977 6.51711 101.902 6.6685 101.779 6.77991C101.656 6.89132 101.494 6.95475 101.324 6.95782Z" fill="#52608E"/>
<path opacity="0.2" d="M101.324 6.95782H83.1313C83.0518 6.95918 82.9728 6.94441 82.8996 6.91447C82.8265 6.88453 82.7607 6.84011 82.7067 6.78411C82.6528 6.72811 82.6117 6.6618 82.5864 6.58953C82.561 6.51727 82.5518 6.44068 82.5595 6.36479L82.8392 2.92285C82.8545 2.76211 82.9311 2.61243 83.0545 2.50254C83.1778 2.39265 83.3392 2.33029 83.5076 2.32744H101.701C101.78 2.32639 101.859 2.34147 101.932 2.3717C102.005 2.40193 102.071 2.44662 102.125 2.50285C102.178 2.55907 102.219 2.62556 102.244 2.69795C102.269 2.77033 102.278 2.84697 102.27 2.92285L101.99 6.3553C101.977 6.51711 101.902 6.6685 101.779 6.77991C101.656 6.89132 101.494 6.95475 101.324 6.95782Z" fill="#1D2334"/>
<path d="M93.9305 3.39734H91.084L91.1954 2.031C91.2301 1.66253 91.4058 1.3194 91.6887 1.06761C91.9715 0.815811 92.3416 0.673136 92.7276 0.667029C92.9104 0.664228 93.0918 0.698435 93.2599 0.767414C93.428 0.836394 93.579 0.938592 93.703 1.06733C93.8271 1.19607 93.9214 1.34845 93.9798 1.5145C94.0382 1.68056 94.0594 1.85656 94.0419 2.031L93.9305 3.39734Z" fill="#52608E"/>
<path opacity="0.4" d="M93.9305 3.39734H91.084L91.1954 2.031C91.2301 1.66253 91.4058 1.3194 91.6887 1.06761C91.9715 0.815811 92.3416 0.673136 92.7276 0.667029C92.9104 0.664228 93.0918 0.698435 93.2599 0.767414C93.428 0.836394 93.579 0.938592 93.703 1.06733C93.8271 1.19607 93.9214 1.34845 93.9798 1.5145C94.0382 1.68056 94.0594 1.85656 94.0419 2.031L93.9305 3.39734Z" fill="white"/>
<path d="M105.958 62.9303H69.3887L74.057 5.56531H110.624L105.958 62.9303Z" fill="white"/>
<path d="M97.941 8.5684H86.2578C86.0705 8.57091 85.8847 8.53552 85.7127 8.46456C85.5406 8.39359 85.3861 8.28864 85.2593 8.15655C85.1324 8.02447 85.0361 7.86823 84.9766 7.69803C84.917 7.52783 84.8956 7.34751 84.9137 7.16884L85.0622 5.34706C85.0982 4.96914 85.2785 4.61726 85.5686 4.35896C85.8587 4.10065 86.2381 3.95413 86.634 3.94751H98.3197C98.5071 3.94504 98.6929 3.98042 98.8651 4.05137C99.0372 4.12231 99.1919 4.22722 99.3189 4.35926C99.446 4.4913 99.5426 4.6475 99.6024 4.8177C99.6622 4.9879 99.684 5.16827 99.6662 5.34706L99.5177 7.16884C99.4806 7.54717 99.2993 7.89911 99.0084 8.15732C98.7175 8.41553 98.3374 8.56189 97.941 8.5684ZM86.5895 4.42431C86.3283 4.42853 86.078 4.52507 85.8865 4.69538C85.6951 4.8657 85.5761 5.09778 85.5523 5.34706L85.4038 7.16884C85.3916 7.28681 85.4055 7.40591 85.4447 7.51836C85.4838 7.63081 85.5473 7.73408 85.6309 7.82141C85.7146 7.90873 85.8165 7.97815 85.9301 8.02512C86.0436 8.07209 86.1663 8.09555 86.29 8.09397H97.9781C98.2399 8.08974 98.4909 7.99296 98.6828 7.8222C98.8747 7.65144 98.9939 7.41876 99.0177 7.16884L99.1662 5.34706C99.1777 5.22916 99.1632 5.11027 99.1236 4.9981C99.084 4.88593 99.0202 4.783 98.9364 4.69599C98.8526 4.60897 98.7507 4.53982 98.6372 4.49301C98.5237 4.44621 98.4012 4.4228 98.2776 4.42431H86.5895Z" fill="#52608E"/>
<g opacity="0.4">
<path d="M97.941 8.5684H86.2578C86.0705 8.57091 85.8847 8.53552 85.7127 8.46456C85.5406 8.39359 85.3861 8.28864 85.2593 8.15655C85.1324 8.02447 85.0361 7.86823 84.9766 7.69803C84.917 7.52783 84.8956 7.34751 84.9137 7.16884L85.0622 5.34706C85.0982 4.96914 85.2785 4.61726 85.5686 4.35896C85.8587 4.10065 86.2381 3.95413 86.634 3.94751H98.3197C98.5071 3.94504 98.6929 3.98042 98.8651 4.05137C99.0372 4.12231 99.1919 4.22722 99.3189 4.35926C99.446 4.4913 99.5426 4.6475 99.6024 4.8177C99.6622 4.9879 99.684 5.16827 99.6662 5.34706L99.5177 7.16884C99.4806 7.54717 99.2993 7.89911 99.0084 8.15732C98.7175 8.41553 98.3374 8.56189 97.941 8.5684ZM86.5895 4.42431C86.3283 4.42853 86.078 4.52507 85.8865 4.69538C85.6951 4.8657 85.5761 5.09778 85.5523 5.34706L85.4038 7.16884C85.3916 7.28681 85.4055 7.40591 85.4447 7.51836C85.4838 7.63081 85.5473 7.73408 85.6309 7.82141C85.7146 7.90873 85.8165 7.97815 85.9301 8.02512C86.0436 8.07209 86.1663 8.09555 86.29 8.09397H97.9781C98.2399 8.08974 98.4909 7.99296 98.6828 7.8222C98.8747 7.65144 98.9939 7.41876 99.0177 7.16884L99.1662 5.34706C99.1777 5.22916 99.1632 5.11027 99.1236 4.9981C99.084 4.88593 99.0202 4.783 98.9364 4.69599C98.8526 4.60897 98.7507 4.53982 98.6372 4.49301C98.5237 4.44621 98.4012 4.4228 98.2776 4.42431H86.5895Z" fill="white"/>
</g>
<path d="M97.3369 4.99841H87.4359C87.3922 4.99928 87.3489 4.99127 87.3087 4.97492C87.2685 4.95857 87.2323 4.93424 87.2026 4.90354C87.1729 4.87284 87.1503 4.83647 87.1364 4.79681C87.1224 4.75715 87.1173 4.7151 87.1216 4.67343L87.1983 3.72459C87.2074 3.63647 87.25 3.55464 87.318 3.49471C87.3861 3.43477 87.4747 3.40092 87.5671 3.39961H97.4681C97.5117 3.3987 97.555 3.4067 97.5951 3.42307C97.6352 3.43945 97.6712 3.46382 97.7007 3.49456C97.7302 3.52531 97.7525 3.56172 97.7662 3.60139C97.7799 3.64105 97.7846 3.68305 97.78 3.72459L97.7033 4.67343C97.6947 4.76135 97.6526 4.84315 97.585 4.90313C97.5174 4.96311 97.4291 4.99704 97.3369 4.99841Z" fill="#52608E"/>
<path d="M105.72 13.9461H77.9976L78.2327 11.0474H105.956L105.72 13.9461Z" fill="#52608E"/>
<path d="M94.5002 17.9811H76.0447L76.1066 17.2339H94.5621L94.5002 17.9811Z" fill="#52608E"/>
<path d="M94.3268 20.1397H75.8713L75.9307 19.3901H94.3862L94.3268 20.1397Z" fill="#52608E"/>
<path d="M94.1511 22.2982H75.6956L75.755 21.5486H94.2105L94.1511 22.2982Z" fill="#52608E"/>
<path d="M93.9758 24.4543H75.5203L75.5797 23.707H94.0352L93.9758 24.4543Z" fill="#52608E"/>
<path d="M106.085 24.4546H98.5549L99.144 17.2339H106.674L106.085 24.4546Z" fill="#52608E"/>
<path d="M104 19.9142C104.035 19.492 103.693 19.2026 103.075 19.2026C102.834 19.1916 102.595 19.2329 102.373 19.3233C102.152 19.4136 101.955 19.5508 101.797 19.7245L101.322 19.3805C101.553 19.1337 101.838 18.9392 102.157 18.8112C102.476 18.6832 102.821 18.6248 103.166 18.6404C104.156 18.6404 104.765 19.084 104.703 19.8265C104.614 20.9295 103.389 21.0125 103.32 21.8689H102.629C102.716 20.8251 103.938 20.6733 104 19.9142ZM102.446 22.9339C102.455 22.8156 102.511 22.7053 102.604 22.6265C102.696 22.5476 102.817 22.5065 102.941 22.5117C102.998 22.5096 103.054 22.5193 103.107 22.5403C103.16 22.5612 103.207 22.5929 103.246 22.633C103.284 22.6732 103.313 22.7209 103.331 22.7728C103.348 22.8248 103.354 22.8797 103.347 22.9339C103.337 23.0487 103.283 23.1558 103.195 23.2341C103.107 23.3123 102.992 23.3559 102.872 23.3562C102.813 23.3603 102.755 23.3521 102.7 23.3322C102.645 23.3122 102.596 23.281 102.555 23.2407C102.515 23.2004 102.484 23.152 102.465 23.099C102.446 23.046 102.439 22.9896 102.446 22.9339Z" fill="white"/>
<path d="M93.6115 28.9093H75.156L75.2179 28.1597H93.6734L93.6115 28.9093Z" fill="#52608E"/>
<path d="M93.4357 31.0657H74.9802L75.0421 30.3185H93.4976L93.4357 31.0657Z" fill="#52608E"/>
<path d="M93.2624 33.2241H74.8069L74.8663 32.4769H93.3218L93.2624 33.2241Z" fill="#52608E"/>
<path d="M93.0868 35.3828H74.6313L74.6908 34.6332H93.1462L93.0868 35.3828Z" fill="#52608E"/>
<path d="M105.196 35.3828H97.666L98.2526 28.1597H105.782L105.196 35.3828Z" fill="#52608E"/>
<path d="M103.112 30.8427C103.146 30.4181 102.805 30.1311 102.186 30.1311C101.946 30.1201 101.706 30.1614 101.485 30.2518C101.264 30.3421 101.067 30.4793 100.909 30.653L100.433 30.3138C100.664 30.0665 100.949 29.8718 101.268 29.7438C101.587 29.6157 101.932 29.5576 102.277 29.5737C103.268 29.5737 103.876 30.0172 103.815 30.7597C103.725 31.8628 102.5 31.9458 102.431 32.8021H101.74C101.824 31.737 103.05 31.6018 103.112 30.8427ZM101.557 33.8719C101.565 33.7553 101.62 33.6462 101.71 33.5672C101.8 33.4881 101.918 33.4452 102.04 33.4473C102.097 33.4452 102.154 33.455 102.207 33.476C102.26 33.4971 102.307 33.529 102.346 33.5694C102.384 33.6098 102.413 33.6578 102.43 33.7101C102.448 33.7623 102.453 33.8176 102.446 33.8719C102.436 33.9865 102.382 34.0933 102.294 34.1715C102.206 34.2496 102.09 34.2934 101.97 34.2942C101.913 34.2965 101.856 34.287 101.803 34.2663C101.75 34.2455 101.702 34.214 101.663 34.1739C101.623 34.1338 101.594 34.0861 101.576 34.034C101.557 33.9819 101.551 33.9266 101.557 33.8719Z" fill="white"/>
<path d="M92.7233 39.8352H74.2678L74.3297 39.088H92.7852L92.7233 39.8352Z" fill="#52608E"/>
<path d="M92.5473 41.9937H74.0918L74.1537 41.2441H92.6092L92.5473 41.9937Z" fill="#52608E"/>
<path d="M92.3715 44.1527H73.9185L73.9779 43.4031H92.4334L92.3715 44.1527Z" fill="#52608E"/>
<path d="M92.1982 46.3087H73.7427L73.8021 45.5615H92.2576L92.1982 46.3087Z" fill="#52608E"/>
<path d="M104.308 46.3087H96.7778L97.3645 39.088H104.894L104.308 46.3087Z" fill="#52608E"/>
<path d="M102.223 41.7687C102.258 41.3465 101.916 41.0571 101.295 41.0571C101.055 41.0463 100.816 41.0877 100.595 41.178C100.374 41.2684 100.178 41.4055 100.02 41.5789L99.5449 41.2255C99.7754 40.9783 100.061 40.7835 100.38 40.6555C100.699 40.5274 101.043 40.4693 101.389 40.4854C102.379 40.4854 102.986 40.9266 102.926 41.6596C102.837 42.765 101.612 42.8457 101.542 43.702H100.862C100.936 42.6749 102.161 42.5278 102.223 41.7687ZM100.669 44.7837C100.678 44.6675 100.732 44.559 100.822 44.4804C100.912 44.4019 101.03 44.3593 101.151 44.3614C101.208 44.3593 101.265 44.3691 101.318 44.39C101.37 44.411 101.417 44.4426 101.456 44.4828C101.495 44.5229 101.524 44.5706 101.541 44.6226C101.559 44.6745 101.564 44.7295 101.557 44.7837C101.548 44.8984 101.494 45.0056 101.406 45.0838C101.318 45.1621 101.202 45.2057 101.082 45.2059C101.025 45.2087 100.967 45.1994 100.914 45.1788C100.861 45.1582 100.813 45.1267 100.773 45.0865C100.734 45.0464 100.704 44.9985 100.686 44.9462C100.668 44.8939 100.662 44.8384 100.669 44.7837Z" fill="white"/>
<path d="M91.8344 50.7638H73.3789L73.4408 50.0142H91.8963L91.8344 50.7638Z" fill="#52608E"/>
<path d="M91.6586 52.9226H73.2031L73.265 52.173H91.7205L91.6586 52.9226Z" fill="#52608E"/>
<path d="M91.4828 55.0783H73.0273L73.0892 54.3311H91.5447L91.4828 55.0783Z" fill="#52608E"/>
<path d="M91.3071 57.2373H72.8516L72.9134 56.4877H91.3689L91.3071 57.2373Z" fill="#52608E"/>
<path d="M103.418 57.2373H95.8887L96.4753 50.0142H104.005L103.418 57.2373Z" fill="#52608E"/>
<path d="M101.334 52.6969C101.369 52.2722 101.027 51.9852 100.406 51.9852C100.166 51.9743 99.9267 52.0155 99.7059 52.1059C99.4851 52.1963 99.2886 52.3335 99.131 52.5071L98.6558 52.1631C98.8862 51.9159 99.1714 51.7212 99.4904 51.5931C99.8095 51.4651 100.154 51.407 100.5 51.423C101.49 51.423 102.096 51.8666 102.037 52.6091C101.948 53.7121 100.723 53.7951 100.653 54.6515H99.9627C100.047 53.6006 101.272 53.4559 101.334 52.6969ZM99.7795 55.7166C99.7878 55.6 99.8425 55.4908 99.9323 55.4118C100.022 55.3328 100.14 55.2899 100.262 55.292C100.319 55.2898 100.376 55.2996 100.429 55.3207C100.482 55.3418 100.529 55.3736 100.568 55.414C100.607 55.4545 100.636 55.5025 100.653 55.5547C100.67 55.6069 100.675 55.6622 100.668 55.7166C100.658 55.8311 100.604 55.938 100.516 56.0161C100.428 56.0942 100.313 56.138 100.193 56.1388C100.136 56.1412 100.078 56.1316 100.025 56.1109C99.9722 56.0901 99.9244 56.0586 99.8851 56.0185C99.8459 55.9785 99.8162 55.9307 99.7979 55.8786C99.7797 55.8265 99.7734 55.7712 99.7795 55.7166Z" fill="white"/>
<path opacity="0.7" d="M105.72 13.9461H77.9976L78.2327 11.0474H105.956L105.72 13.9461Z" fill="white"/>
<path opacity="0.7" d="M94.5002 17.9811H76.0447L76.1066 17.2339H94.5621L94.5002 17.9811Z" fill="white"/>
<path opacity="0.7" d="M94.3268 20.1397H75.8713L75.9307 19.3901H94.3862L94.3268 20.1397Z" fill="white"/>
<path opacity="0.7" d="M94.1511 22.2982H75.6956L75.755 21.5486H94.2105L94.1511 22.2982Z" fill="white"/>
<path opacity="0.7" d="M93.9758 24.4543H75.5203L75.5797 23.707H94.0352L93.9758 24.4543Z" fill="white"/>
<path opacity="0.7" d="M106.085 24.4546H98.5549L99.144 17.2339H106.674L106.085 24.4546Z" fill="white"/>
<path opacity="0.7" d="M93.6115 28.9093H75.156L75.2179 28.1597H93.6734L93.6115 28.9093Z" fill="white"/>
<path opacity="0.7" d="M93.4357 31.0657H74.9802L75.0421 30.3185H93.4976L93.4357 31.0657Z" fill="white"/>
<path opacity="0.7" d="M93.2624 33.2241H74.8069L74.8663 32.4769H93.3218L93.2624 33.2241Z" fill="white"/>
<path opacity="0.7" d="M93.0868 35.3828H74.6313L74.6908 34.6332H93.1462L93.0868 35.3828Z" fill="white"/>
<path opacity="0.7" d="M105.196 35.3828H97.666L98.2526 28.1597H105.782L105.196 35.3828Z" fill="white"/>
<path opacity="0.7" d="M92.7233 39.8352H74.2678L74.3297 39.088H92.7852L92.7233 39.8352Z" fill="white"/>
<path opacity="0.7" d="M92.5473 41.9937H74.0918L74.1537 41.2441H92.6092L92.5473 41.9937Z" fill="white"/>
<path opacity="0.7" d="M92.3715 44.1527H73.9185L73.9779 43.4031H92.4334L92.3715 44.1527Z" fill="white"/>
<path opacity="0.7" d="M92.1982 46.3087H73.7427L73.8021 45.5615H92.2576L92.1982 46.3087Z" fill="white"/>
<path opacity="0.7" d="M104.308 46.3087H96.7778L97.3645 39.088H104.894L104.308 46.3087Z" fill="white"/>
<path opacity="0.7" d="M91.8344 50.7638H73.3789L73.4408 50.0142H91.8963L91.8344 50.7638Z" fill="white"/>
<path opacity="0.7" d="M91.6586 52.9226H73.2031L73.265 52.173H91.7205L91.6586 52.9226Z" fill="white"/>
<path opacity="0.7" d="M91.4828 55.0783H73.0273L73.0892 54.3311H91.5447L91.4828 55.0783Z" fill="white"/>
<path opacity="0.7" d="M91.3071 57.2373H72.8516L72.9134 56.4877H91.3689L91.3071 57.2373Z" fill="white"/>
<path opacity="0.7" d="M103.418 57.2373H95.8887L96.4753 50.0142H104.005L103.418 57.2373Z" fill="white"/>
<path d="M49.505 54.6991V61.2319C49.5068 62.5201 48.9878 63.7588 48.057 64.6881L41.6956 71.0667H45.2971L51.906 64.8328C52.3989 64.3683 52.7906 63.8145 53.0583 63.2037C53.326 62.5928 53.4644 61.9371 53.4654 61.2746V54.6991H49.505Z" fill="#52608E"/>
<path opacity="0.4" d="M53.4654 54.6991V61.2675C53.4664 61.6355 53.4232 62.0025 53.3367 62.361C53.12 63.3005 52.6229 64.1593 51.906 64.8328L45.2971 71.0667H41.6956L48.057 64.6881C48.9878 63.7588 49.5068 62.5201 49.505 61.2319V54.6991H53.4654Z" fill="white"/>
<path opacity="0.2" d="M53.4653 54.6991V61.2675C53.4663 61.6355 53.4231 62.0025 53.3366 62.361L49.5049 60.8785V54.6991H53.4653Z" fill="#1D2334"/>
<path d="M39.1932 71.7784L33.8615 91.244C33.8138 91.4213 33.7059 91.5783 33.5549 91.6903C33.4039 91.8024 33.2183 91.8632 33.0274 91.8632H23.5001C23.4216 91.8629 23.3443 91.8455 23.2739 91.8122C23.2036 91.7789 23.1421 91.7306 23.0942 91.671C23.0461 91.6117 23.013 91.5424 22.9976 91.4688C22.9821 91.3951 22.9847 91.319 23.0051 91.2464L28.3392 71.7784H27.3145L22.0471 91.0045C21.9894 91.2175 21.9833 91.4404 22.0292 91.6561C22.0751 91.8718 22.1718 92.0746 22.312 92.249C22.4522 92.4234 22.6321 92.5648 22.838 92.6624C23.0439 92.7599 23.2704 92.8111 23.5001 92.812H33.0274C33.437 92.8118 33.8349 92.6815 34.1591 92.4416C34.4834 92.2017 34.7155 91.8657 34.8194 91.486L40.2155 71.7784H39.1932Z" fill="#52608E"/>
<g opacity="0.4">
<path d="M39.1932 71.7784L33.8615 91.244C33.8138 91.4213 33.7059 91.5783 33.5549 91.6903C33.4039 91.8024 33.2183 91.8632 33.0274 91.8632H23.5001C23.4216 91.8629 23.3443 91.8455 23.2739 91.8122C23.2036 91.7789 23.1421 91.7306 23.0942 91.671C23.0461 91.6117 23.013 91.5424 22.9976 91.4688C22.9821 91.3951 22.9847 91.319 23.0051 91.2464L28.3392 71.7784H27.3145L22.0471 91.0045C21.9894 91.2175 21.9833 91.4404 22.0292 91.6561C22.0751 91.8718 22.1718 92.0746 22.312 92.249C22.4522 92.4234 22.6321 92.5648 22.838 92.6624C23.0439 92.7599 23.2704 92.8111 23.5001 92.812H33.0274C33.437 92.8118 33.8349 92.6815 34.1591 92.4416C34.4834 92.2017 34.7155 91.8657 34.8194 91.486L40.2155 71.7784H39.1932Z" fill="white"/>
</g>
<path d="M41.3736 92.8116L35.5444 71.51L34.5864 71.7496L40.3488 92.8116H41.3736Z" fill="#52608E"/>
<path d="M53.2549 92.8116L47.4257 71.51L46.4678 71.7496L52.2302 92.8116H53.2549Z" fill="#52608E"/>
<g opacity="0.5">
<path d="M41.3736 92.8116L35.5444 71.51L34.5864 71.7496L40.3488 92.8116H41.3736Z" fill="white"/>
</g>
<g opacity="0.5">
<path d="M53.2549 92.8116L47.4257 71.51L46.4678 71.7496L52.2302 92.8116H53.2549Z" fill="white"/>
</g>
<path opacity="0.2" d="M27.3144 71.7784H28.3391L27.5347 74.7128L26.5867 74.4352L27.3144 71.7784Z" fill="#1D2334"/>
<path opacity="0.2" d="M35.5444 71.51L36.8686 76.3515L35.7572 76.0289L34.5864 71.7496L35.5444 71.51Z" fill="#1D2334"/>
<path opacity="0.2" d="M39.1929 71.7784H40.2151L38.5369 77.9222L37.5864 77.6447L39.1929 71.7784Z" fill="#1D2334"/>
<path opacity="0.2" d="M49.7648 80.1161L48.6485 79.7887L46.4678 71.8089L47.4257 71.548L49.7648 80.1161Z" fill="#1D2334"/>
<path d="M26.4108 72.1032L21.7821 48.0902L21.7202 47.7273C21.6744 47.503 21.6807 47.2718 21.7384 47.05C21.7961 46.8283 21.904 46.6214 22.0543 46.444C22.1995 46.2773 22.3819 46.1439 22.5879 46.0536C22.7939 45.9633 23.0184 45.9184 23.2449 45.9221H33.2648C33.7403 45.9445 34.1945 46.118 34.5558 46.4152C34.917 46.7125 35.1647 47.1165 35.2598 47.5636L35.3341 47.9692L39.9603 71.9276L38.9851 72.0984L34.344 48.0689L34.2846 47.732C34.233 47.5028 34.1062 47.2955 33.9226 47.1405C33.7391 46.9855 33.5085 46.891 33.2648 46.8709H23.235C23.1537 46.8679 23.0727 46.8826 22.9981 46.9138C22.9235 46.945 22.8573 46.992 22.8043 47.0512C22.7465 47.1235 22.7059 47.207 22.6854 47.296C22.6649 47.3849 22.6649 47.4771 22.6855 47.566L22.7548 47.9645L27.386 71.9229L26.4108 72.1032Z" fill="#52608E"/>
<g opacity="0.5">
<path d="M26.4108 72.1032L21.7821 48.0902L21.7202 47.7273C21.6744 47.503 21.6807 47.2718 21.7384 47.05C21.7961 46.8283 21.904 46.6214 22.0543 46.444C22.1995 46.2773 22.3819 46.1439 22.5879 46.0536C22.7939 45.9633 23.0184 45.9184 23.2449 45.9221H33.2648C33.7403 45.9445 34.1945 46.118 34.5558 46.4152C34.917 46.7125 35.1647 47.1165 35.2598 47.5636L35.3341 47.9692L39.9603 71.9276L38.9851 72.0984L34.344 48.0689L34.2846 47.732C34.233 47.5028 34.1062 47.2955 33.9226 47.1405C33.7391 46.9855 33.5085 46.891 33.2648 46.8709H23.235C23.1537 46.8679 23.0727 46.8826 22.9981 46.9138C22.9235 46.945 22.8573 46.992 22.8043 47.0512C22.7465 47.1235 22.7059 47.207 22.6854 47.296C22.6649 47.3849 22.6649 47.4771 22.6855 47.566L22.7548 47.9645L27.386 71.9229L26.4108 72.1032Z" fill="white"/>
</g>
<path d="M28.4354 69.7214H47.4775C47.8058 69.7214 48.1205 69.8464 48.3526 70.0688C48.5847 70.2913 48.7151 70.5929 48.7151 70.9075V72.4897H27.1978V70.9028C27.1991 70.589 27.33 70.2886 27.562 70.0671C27.794 69.8457 28.108 69.7214 28.4354 69.7214Z" fill="#52608E"/>
<path d="M49.0123 71.1096H26.9008C26.6261 71.1096 26.4033 71.3231 26.4033 71.5864V72.0181C26.4033 72.2815 26.6261 72.4949 26.9008 72.4949H49.0123C49.2871 72.4949 49.5098 72.2815 49.5098 72.0181V71.5864C49.5098 71.3231 49.2871 71.1096 49.0123 71.1096Z" fill="#52608E"/>
<path opacity="0.6" d="M49.0123 71.1096H26.9008C26.6261 71.1096 26.4033 71.3231 26.4033 71.5864V72.0181C26.4033 72.2815 26.6261 72.4949 26.9008 72.4949H49.0123C49.2871 72.4949 49.5098 72.2815 49.5098 72.0181V71.5864C49.5098 71.3231 49.2871 71.1096 49.0123 71.1096Z" fill="white"/>
<path d="M36.7155 57.7828H24.1338L22.2576 48.0571H34.8368L36.6982 57.6927L36.7155 57.7828Z" fill="#52608E"/>
<path d="M49.0916 37.0575C49.0916 37.0575 47.5099 33.5373 47.3738 33.1601C47.2376 32.7829 47.3985 30.8781 47.2772 30.5508C47.1559 30.2234 45.3193 29.9886 44.9307 30.0313C44.5421 30.074 44.8836 33.0201 45.0445 33.2526C45.2543 33.4918 45.4909 33.7081 45.75 33.8978L47.1485 37.9304L49.0916 37.0575Z" fill="#E6AA9E"/>
<path d="M41.0892 43.7019C42.1685 43.8655 46.5868 44.4776 47.5744 43.8466C48.3714 43.3366 46.1264 35.0697 46.1264 35.0697L48.1239 34.2893C48.1239 34.2893 52.869 44.3044 50.3343 46.5911C49.0472 47.7535 45.4284 48.0476 40.2229 48.0476L41.0892 43.7019Z" fill="#52608E"/>
<path opacity="0.8" d="M41.0892 43.7019C42.1685 43.8655 46.5868 44.4776 47.5744 43.8466C48.3714 43.3366 46.1264 35.0697 46.1264 35.0697L48.1239 34.2893C48.1239 34.2893 52.869 44.3044 50.3343 46.5911C49.0472 47.7535 45.4284 48.0476 40.2229 48.0476L41.0892 43.7019Z" fill="white"/>
<path opacity="0.1" d="M42.9185 48.0237C42.1512 48.0451 41.3318 48.0545 40.4705 48.0545L41.213 45.329C42.0176 46.0689 42.6057 46.998 42.9185 48.0237Z" fill="#1D2334"/>
<path d="M47.3193 49.4778L52.557 54.7866" stroke="#1D2334" stroke-width="2" stroke-miterlimit="10"/>
<path d="M43.5645 52.6046C43.5645 52.6046 47.562 52.486 47.9778 52.4457C48.3937 52.4054 50.1239 51.4565 50.4952 51.4186C50.8665 51.3806 51.8566 52.8798 51.9803 53.2356C52.1041 53.5914 49.1759 54.5403 48.8862 54.5023C48.5715 54.42 48.267 54.3055 47.9778 54.1607L43.5645 54.6589V52.6046Z" fill="#E6AA9E"/>
<path d="M41.2129 90.9522L43.1857 90.6936L43.4579 86.2008L41.4901 86.4617L41.2129 90.9522Z" fill="#E6AA9E"/>
<path d="M43.3344 90.4656L41.1067 90.3304C41.0695 90.3276 41.0326 90.3386 41.0036 90.3611C40.9746 90.3836 40.9557 90.4159 40.9508 90.4513L40.7329 92.1356C40.7268 92.2239 40.7575 92.311 40.8183 92.3777C40.8791 92.4444 40.965 92.4853 41.0572 92.4914C41.8344 92.527 42.2082 92.5056 43.1884 92.5578C43.7924 92.591 44.978 92.7143 45.8072 92.6361C46.6364 92.5578 46.5349 91.775 46.1785 91.737C45.327 91.6445 44.1983 91.0467 43.6686 90.5913C43.5748 90.515 43.4573 90.4708 43.3344 90.4656Z" fill="#1D2334"/>
<path d="M44.0175 90.831C43.8394 90.8156 43.6635 90.7822 43.4927 90.7313C43.484 90.7292 43.4761 90.7247 43.47 90.7184C43.4638 90.7121 43.4597 90.7042 43.4581 90.6958C43.4576 90.6871 43.4594 90.6784 43.4632 90.6705C43.4671 90.6626 43.473 90.6558 43.4804 90.6507C43.5472 90.6127 44.1338 90.2783 44.3715 90.3826C44.398 90.395 44.4209 90.4138 44.4378 90.437C44.4547 90.4603 44.4651 90.4873 44.468 90.5155C44.4799 90.5575 44.4795 90.6019 44.4669 90.6437C44.4542 90.6856 44.4298 90.7233 44.3962 90.7527C44.2846 90.8232 44.1495 90.8512 44.0175 90.831ZM44.3319 90.4728C44.2056 90.4158 43.864 90.5558 43.6239 90.6815C43.9754 90.7693 44.2353 90.774 44.3368 90.6934C44.3572 90.6729 44.3717 90.6477 44.3791 90.6203C44.3864 90.5929 44.3864 90.5642 44.3789 90.5368C44.3779 90.5231 44.3729 90.5098 44.3647 90.4985C44.3564 90.4873 44.345 90.4783 44.3319 90.4728Z" fill="#52608E"/>
<path d="M43.5026 90.7317C43.4962 90.7339 43.4892 90.7339 43.4828 90.7317C43.4702 90.7232 43.4614 90.7106 43.458 90.6962C43.458 90.6795 43.458 90.1221 43.661 89.9489C43.6889 89.9269 43.7216 89.911 43.7567 89.9024C43.7918 89.8938 43.8284 89.8927 43.8639 89.8991C43.9032 89.9024 43.9401 89.9182 43.9688 89.944C43.9976 89.9698 44.0164 90.0041 44.0224 90.0414C44.0545 90.2526 43.7328 90.6321 43.5273 90.7317C43.5234 90.7334 43.5192 90.7343 43.5149 90.7343C43.5107 90.7343 43.5064 90.7334 43.5026 90.7317ZM43.8243 89.9916C43.8058 89.9903 43.7871 89.9928 43.7696 89.9989C43.7521 90.0051 43.7362 90.0147 43.7229 90.0272C43.5941 90.1292 43.562 90.4423 43.5545 90.6202C43.7466 90.4856 43.8804 90.2881 43.9308 90.0652C43.9308 90.0391 43.9135 90.0059 43.8466 89.994L43.8243 89.9916Z" fill="#52608E"/>
<path opacity="0.2" d="M41.4901 86.4617L43.458 86.2031L43.302 88.7698L41.3367 88.9358L41.4901 86.4617Z" fill="#1D2334"/>
<path d="M41.2921 64.5454L40.8119 61.6562L29.7574 61.0228C29.7574 61.0228 28.5817 67.0338 29.4852 68.635C31.0965 71.4934 39.7872 70.0582 42.3292 70.331C40.8094 76.2874 40.958 87.9274 40.958 87.9274L44.5892 88.1931C44.5892 88.1931 47.3837 75.6517 47.9481 69.6906C48.3293 65.6698 44.8515 65.7694 41.2921 64.5454Z" fill="#1D2334"/>
<path d="M40.5323 88.0916L44.8961 88.3667L45.2699 86.5758L40.4753 86.3623L40.5323 88.0916Z" fill="#52608E"/>
<path d="M45.7625 89.2748L47.7476 89.4148L48.9902 85.0762L47.0075 84.9386L45.7625 89.2748Z" fill="#E6AA9E"/>
<path d="M47.9434 89.2207L45.7924 88.6466C45.7569 88.6354 45.7183 88.638 45.6848 88.654C45.6514 88.6701 45.626 88.6981 45.6142 88.732L45.0349 90.3356C45.0226 90.3784 45.0192 90.4232 45.0249 90.4673C45.0307 90.5114 45.0455 90.554 45.0685 90.5925C45.0915 90.6311 45.1223 90.665 45.159 90.6921C45.1957 90.7193 45.2377 90.7392 45.2825 90.7507C46.025 90.9381 46.4038 90.9879 47.3518 91.2394C47.9335 91.3936 49.0671 91.7494 49.8963 91.8395C50.7256 91.9297 50.7949 91.1421 50.4533 91.0354C49.6414 90.7744 48.6711 89.9632 48.2478 89.4128C48.172 89.3176 48.0646 89.2499 47.9434 89.2207Z" fill="#1D2334"/>
<path d="M48.5321 89.7163C48.3595 89.6667 48.1934 89.5982 48.0371 89.5123C48.0288 89.5092 48.0219 89.5035 48.0174 89.4962C48.0129 89.4889 48.0111 89.4803 48.0123 89.4719C48.0129 89.4633 48.016 89.4549 48.0213 89.4478C48.0265 89.4407 48.0337 89.4351 48.042 89.4316C48.1138 89.4079 48.7623 89.1944 48.9702 89.3486C48.9943 89.3657 49.0133 89.3884 49.0254 89.4146C49.0376 89.4408 49.0424 89.4695 49.0395 89.498C49.0427 89.5428 49.0325 89.5876 49.0101 89.6271C48.9878 89.6665 48.9542 89.6991 48.9133 89.721C48.7901 89.7651 48.6541 89.7634 48.5321 89.7163ZM48.9158 89.4269C48.8044 89.3462 48.4405 89.4269 48.1732 89.4909C48.4975 89.6475 48.7524 89.7044 48.8663 89.6451C48.8911 89.6295 48.9112 89.6079 48.9247 89.5825C48.9381 89.5571 48.9444 89.5288 48.943 89.5004C48.9456 89.4865 48.9439 89.4721 48.9382 89.4591C48.9325 89.4461 48.923 89.4349 48.9108 89.4269H48.9158Z" fill="#52608E"/>
<path d="M48.05 89.517H48.0203C48.0145 89.5119 48.0102 89.5056 48.0076 89.4986C48.005 89.4916 48.0042 89.484 48.0054 89.4766C48.0054 89.46 48.1218 88.9144 48.3644 88.7863C48.3969 88.7719 48.4324 88.7644 48.4683 88.7644C48.5042 88.7644 48.5397 88.7719 48.5723 88.7863C48.6103 88.7978 48.6433 88.821 48.6661 88.8523C48.689 88.8837 48.7004 88.9213 48.6985 88.9595C48.6812 89.1706 48.2851 89.479 48.0624 89.5359C48.0561 89.5312 48.0517 89.5245 48.05 89.517ZM48.5153 88.8575C48.4975 88.8527 48.4789 88.8515 48.4606 88.8539C48.4423 88.8564 48.4247 88.8624 48.4089 88.8717C48.2604 88.9476 48.1614 89.2465 48.1144 89.4197C48.3173 89.3296 48.5847 89.09 48.6094 88.9453C48.6094 88.9192 48.6094 88.886 48.5426 88.8622L48.5153 88.8575Z" fill="#52608E"/>
<path opacity="0.2" d="M47.0077 84.9386L48.9904 85.0786L48.28 87.5574L46.3196 87.3273L47.0077 84.9386Z" fill="#1D2334"/>
<path d="M49.6635 87.2519L46.1684 86.2674C46.1684 86.2674 48.2674 74.9809 50.3714 71.0669C50.213 71.0171 50.0026 70.953 49.7427 70.8795C49.2749 70.7443 48.6536 70.5759 47.9234 70.3814C42.8441 69.0316 32.5496 66.5006 32.5496 66.5006L37.2525 62.2948C37.2525 62.2948 55.9853 65.0322 56.3739 69.7622C56.5595 72.0371 49.6635 87.2519 49.6635 87.2519Z" fill="#1D2334"/>
<path d="M45.718 86.3404L49.926 87.4814L50.6809 85.8043L46.0373 84.6372L45.718 86.3404Z" fill="#52608E"/>
<path opacity="0.2" d="M49.7524 70.8791C49.2846 70.7439 48.6633 70.5755 47.9331 70.381C48.0791 69.2329 48.0816 67.9163 47.5049 67.245C46.3588 65.9071 43.4108 65.122 41.7326 64.8373C40.3291 64.6001 35.6138 64.1257 35.6138 64.1257C35.6138 64.1257 41.7326 63.5635 47.99 65.3117C51.0693 66.1799 50.4678 69.0763 49.7524 70.8791Z" fill="#1D2334"/>
<path d="M41.0895 43.7019C41.0895 43.7019 42.6935 49.3949 40.8197 61.6564C37.3271 61.5853 31.4583 61.4548 29.7578 61.4192C29.7157 59.7113 31.0301 51.3425 29.4929 43.2701C30.5998 43.0872 31.7191 42.9809 32.8419 42.9523C34.4854 42.8961 36.1308 42.9301 37.7702 43.0543C38.8923 43.188 40.0021 43.4045 41.0895 43.7019Z" fill="#52608E"/>
<path opacity="0.7" d="M41.0895 43.7019C41.0895 43.7019 42.6935 49.3949 40.8197 61.6564C37.3271 61.5853 31.4583 61.4548 29.7578 61.4192C29.7157 59.7113 31.0301 51.3425 29.4929 43.2701C30.5998 43.0872 31.7191 42.9809 32.8419 42.9523C34.4854 42.8961 36.1308 42.9301 37.7702 43.0543C38.8923 43.188 40.0021 43.4045 41.0895 43.7019Z" fill="white"/>
<path opacity="0.1" d="M33.3737 53.6717C32.3836 53.463 31.2029 52.5497 30.2301 51.6483C30.2301 50.0448 30.1485 48.3392 29.9678 46.6005C31.344 48.5527 35.0717 54.0299 33.3737 53.6717Z" fill="#1D2334"/>
<path d="M29.4852 43.2704C25.7005 44.5774 32.3441 54.398 34.406 55.4109C36.4679 56.4238 46.9481 54.3031 46.9481 54.3031L46.5348 52.2726C46.5348 52.2726 37.2625 52.4979 36.4085 52.2916C35.5545 52.0852 33.5248 47.8984 32.3565 45.9224C31.707 44.7763 30.7043 43.8501 29.4852 43.2704Z" fill="#52608E"/>
<path opacity="0.8" d="M29.4852 43.2704C25.7005 44.5774 32.3441 54.398 34.406 55.4109C36.4679 56.4238 46.9481 54.3031 46.9481 54.3031L46.5348 52.2726C46.5348 52.2726 37.2625 52.4979 36.4085 52.2916C35.5545 52.0852 33.5248 47.8984 32.3565 45.9224C31.707 44.7763 30.7043 43.8501 29.4852 43.2704Z" fill="white"/>
<path d="M45.792 52.0898L46.3291 54.7869L47.3192 54.462L46.9479 52.0898H45.792Z" fill="#52608E"/>
<path opacity="0.7" d="M45.792 52.0898L46.3291 54.7869L47.3192 54.462L46.9479 52.0898H45.792Z" fill="white"/>
<path d="M46.0591 35.6697L48.7225 34.6591L48.2052 33.7886L45.8413 34.5809L46.0591 35.6697Z" fill="#52608E"/>
<path opacity="0.7" d="M46.0591 35.6697L48.7225 34.6591L48.2052 33.7886L45.8413 34.5809L46.0591 35.6697Z" fill="white"/>
<path opacity="0.1" d="M32.2375 42.9763C32.2375 42.9763 32.3093 44.084 34.5791 45.1515L36.1484 44.0627C36.1484 44.0627 36.5965 46.8428 36.891 48.9184C36.891 48.9184 36.8712 45.5974 36.5742 44.3212L37.7747 44.7292C37.7747 44.7292 36.7524 43.0474 35.0123 42.6608C33.2722 42.2741 32.2375 42.9763 32.2375 42.9763Z" fill="#1D2334"/>
<path d="M33.4409 37.6578C33.7181 39.1831 33.9657 41.9727 32.8345 42.9643L36.1389 43.8467L37.7528 43.0663C35.9929 42.6251 36.0672 41.3678 36.4013 40.1936L33.4409 37.6578Z" fill="#E6AA9E"/>
<path opacity="0.2" d="M34.6536 38.6919L36.411 40.1934C36.3296 40.4667 36.2725 40.746 36.2402 41.0284C35.5669 40.9217 34.656 40.1911 34.5991 39.5126C34.5639 39.2382 34.5824 38.9599 34.6536 38.6919Z" fill="#1D2334"/>
<path d="M35.7851 33.4187C35.0648 34.1683 35.6861 35.0247 37.9856 36.066C38.5326 34.9108 38.1984 32.9823 37.4559 32.6454C36.7133 32.3086 36.4138 32.7688 35.7851 33.4187Z" fill="#1D2334"/>
<path d="M32.4754 35.7768C33.0595 37.7623 33.2972 38.9507 34.5893 39.7643C36.5348 40.986 38.9185 39.5271 38.9655 37.4136C39.0051 35.5159 38.0447 32.5863 35.8095 32.2139C35.3176 32.1297 34.8114 32.1672 34.3388 32.3229C33.8663 32.4786 33.443 32.7474 33.1091 33.1037C32.7752 33.46 32.5418 33.8921 32.4309 34.359C32.32 34.826 32.3353 35.3124 32.4754 35.7721V35.7768Z" fill="#E6AA9E"/>
<path d="M32.921 33.8242C33.9755 33.9428 34.0844 34.9817 33.0448 37.2044C31.8443 36.6683 30.7874 34.9936 31.1265 34.2772C31.4656 33.5608 31.9879 33.7174 32.921 33.8242Z" fill="#1D2334"/>
<path d="M31.8393 37.5939C31.9661 37.8205 32.1383 38.021 32.346 38.1838C32.5537 38.3466 32.7928 38.4686 33.0497 38.5428C33.7378 38.7349 34.0893 38.1466 33.9062 37.5204C33.7403 36.9558 33.1809 36.1754 32.4878 36.2584C31.7948 36.3415 31.5274 37.0317 31.8393 37.5939Z" fill="#E6AA9E"/>
<path d="M31.2913 34.8768C31.2913 34.8768 30.8185 34.2118 31.7394 32.8817C32.6602 31.5517 34.9097 31.1434 36.6349 31.5101C38.3601 31.8769 37.3339 33.9551 36.7178 34.2998L36.794 33.9746C36.1345 34.3501 35.4084 34.5652 34.6655 34.6054L35.006 34.2607C35.006 34.2607 32.2995 35.026 31.2913 34.8768Z" fill="#1D2334"/>
<path d="M33.4159 42.0271C33.4159 42.0271 35.203 43.3128 36.1387 43.6093C36.1387 43.6093 36.5793 42.817 36.3986 42.1623L37.7526 43.0661C37.9048 43.61 37.9048 44.1827 37.7526 44.7266L36.1387 43.8465L34.6139 44.914C34.6139 44.914 32.359 44.2877 32.2278 42.9759L33.4159 42.0271Z" fill="#52608E"/>
<path opacity="0.8" d="M33.4159 42.0271C33.4159 42.0271 35.203 43.3128 36.1387 43.6093C36.1387 43.6093 36.5793 42.817 36.3986 42.1623L37.7526 43.0661C37.9048 43.61 37.9048 44.1827 37.7526 44.7266L36.1387 43.8465L34.6139 44.914C34.6139 44.914 32.359 44.2877 32.2278 42.9759L33.4159 42.0271Z" fill="white"/>
<path d="M68.6444 53.7404H38.3556C38.1592 53.7404 38 53.9309 38 54.1659V55.2315C38 55.4665 38.1592 55.657 38.3556 55.657H68.6444C68.8408 55.657 69 55.4665 69 55.2315V54.1659C69 53.9309 68.8408 53.7404 68.6444 53.7404Z" fill="#52608E"/>
<path opacity="0.5" d="M69 54.8711V55.4327C69 55.5573 68.9453 55.6569 68.7508 55.6569H38.4559C38.2583 55.6569 38 55.5573 38 55.4327V54.8711C38 54.7484 38.2583 54.6986 38.4559 54.6986H68.7508C68.9453 54.6986 69 54.7484 69 54.8711Z" fill="white"/>
<path opacity="0.2" d="M48.2676 54.4382V55.1332C48.2676 55.2874 48.2132 55.4108 48.0548 55.4108H38.2429C38.082 55.4108 37.8716 55.2874 37.8716 55.1332V54.4382C37.8716 54.2864 38.082 54.2247 38.2429 54.2247H48.0548C48.2132 54.2247 48.2676 54.2864 48.2676 54.4382Z" fill="#1D2334"/>
<path d="M42.6633 19.6225C42.45 18.8818 42.044 18.2051 41.4833 17.6559C40.9226 17.1067 40.2255 16.703 39.4575 16.4825C38.6895 16.262 37.8756 16.232 37.0921 16.3953C36.3087 16.5587 35.5814 16.91 34.9783 17.4163C34.3753 17.9226 33.9162 18.5674 33.6443 19.2902C33.3723 20.013 33.2963 20.7901 33.4234 21.5488C33.5505 22.3074 33.8765 23.0227 34.3708 23.6276C34.8652 24.2325 35.5118 24.7072 36.2499 25.0072C36.5671 25.1319 36.8229 25.3677 36.9652 25.6666L37.1261 26.0153L41.6831 24.8293L41.636 24.4497C41.6033 24.1207 41.6995 23.7918 41.9058 23.527C42.3306 22.9727 42.6193 22.3338 42.7504 21.6577C42.8816 20.9817 42.8518 20.2859 42.6633 19.6225Z" fill="#52608E"/>
<path d="M38.6141 26.0249C38.6141 26.0249 37.9284 23.9635 36.718 23.0502L37.3888 22.8747L37.4408 21.8855L38.5373 23.406L38.4482 21.5558L39.5299 23.2424L39.6388 22.2935L40.5967 22.0563C40.0727 23.1844 39.979 24.453 40.3319 25.6406" stroke="white" stroke-linecap="round" stroke-linejoin="round"/>
<path d="M39.4755 25.6784C38.6686 25.8895 38.2181 26.7791 38.4706 27.6639C38.723 28.5487 39.5795 29.0871 40.3864 28.8831C41.1933 28.6791 41.6414 27.7848 41.3914 26.9C41.1414 26.0152 40.2824 25.4697 39.4755 25.6784Z" fill="#1D2334"/>
<path d="M41.0296 28.0696L39.4058 28.4942C39.0179 28.5954 38.6045 28.5524 38.2483 28.3738C37.8921 28.1952 37.6195 27.8942 37.485 27.5312L36.9528 26.0913C36.9422 26.0628 36.9378 26.0326 36.94 26.0024C36.9422 25.9723 36.9509 25.9429 36.9655 25.9161C36.9802 25.8894 37.0005 25.8658 37.0252 25.847C37.0498 25.8281 37.0783 25.8144 37.1088 25.8066L41.584 24.6372C41.6145 24.6291 41.6463 24.6272 41.6776 24.6316C41.7088 24.6359 41.7388 24.6465 41.7656 24.6625C41.7924 24.6786 41.8153 24.6998 41.8331 24.7249C41.8508 24.7499 41.863 24.7782 41.8687 24.808L42.1732 26.3048C42.2499 26.6829 42.1746 27.0749 41.9626 27.4022C41.7505 27.7294 41.4173 27.9678 41.0296 28.0696Z" fill="#52608E"/>
<path opacity="0.4" d="M41.0296 28.0696L39.4058 28.4942C39.0179 28.5954 38.6045 28.5524 38.2483 28.3738C37.8921 28.1952 37.6195 27.8942 37.485 27.5312L36.9528 26.0913C36.9422 26.0628 36.9378 26.0326 36.94 26.0024C36.9422 25.9723 36.9509 25.9429 36.9655 25.9161C36.9802 25.8894 37.0005 25.8658 37.0252 25.847C37.0498 25.8281 37.0783 25.8144 37.1088 25.8066L41.584 24.6372C41.6145 24.6291 41.6463 24.6272 41.6776 24.6316C41.7088 24.6359 41.7388 24.6465 41.7656 24.6625C41.7924 24.6786 41.8153 24.6998 41.8331 24.7249C41.8508 24.7499 41.863 24.7782 41.8687 24.808L42.1732 26.3048C42.2499 26.6829 42.1746 27.0749 41.9626 27.4022C41.7505 27.7294 41.4173 27.9678 41.0296 28.0696Z" fill="white"/>
<path d="M31.7772 24.1579C31.3338 24.0798 30.884 24.0393 30.4331 24.0369C30.209 24.0356 29.985 24.0475 29.7624 24.0725C29.651 24.0891 29.5396 24.101 29.4331 24.127C29.3787 24.1413 29.3242 24.1484 29.2723 24.1674L29.1163 24.2148L28.9381 24.2694L29.0445 24.1199C29.3447 23.694 29.5837 23.2312 29.7549 22.7441C29.84 22.5025 29.9022 22.254 29.9406 22.0016C29.9595 21.8766 29.9711 21.7507 29.9752 21.6245C29.9827 21.4988 29.9827 21.3729 29.9752 21.2473C29.9658 21.1229 29.9476 20.9993 29.9208 20.8772L29.8737 20.697L29.8119 20.5191C29.7679 20.4028 29.7141 20.2901 29.651 20.1822C29.5901 20.0734 29.5215 19.9688 29.4455 19.8691C29.369 19.7696 29.2863 19.6745 29.198 19.5844L29.0619 19.4516L28.9133 19.3283C28.8168 19.2429 28.7029 19.1764 28.6015 19.091C28.5 19.0056 28.3787 18.9582 28.2673 18.8894L28.0198 18.7329L28.2945 18.6071C28.4257 18.5455 28.5643 18.4719 28.6955 18.396C28.8267 18.3201 28.9579 18.2418 29.0866 18.1588C29.3417 17.9921 29.5841 17.8082 29.8119 17.6085C29.9232 17.5088 30.0322 17.4068 30.1386 17.3001C30.245 17.1933 30.3416 17.0795 30.4331 16.9656C30.5247 16.8518 30.6138 16.7284 30.6807 16.6074C30.7606 16.4861 30.8325 16.3602 30.896 16.2303C30.9614 16.1012 31.0177 15.9681 31.0643 15.8317L31.1287 15.6277L31.1757 15.4166C31.2033 15.2773 31.2199 15.1361 31.2252 14.9944C31.2384 14.7084 31.2117 14.422 31.146 14.1428L31.0965 13.9317L31.0272 13.7253C30.9851 13.5854 30.9183 13.4549 30.8638 13.3197C30.8094 13.1845 30.7302 13.0587 30.6633 12.9259L30.3094 12.2143L30.9876 12.6318C31.1064 12.7077 31.2351 12.7812 31.3762 12.85C31.5173 12.9188 31.6485 12.9852 31.7871 13.0445C32.0631 13.1681 32.3476 13.2735 32.6386 13.36C32.7846 13.4003 32.9307 13.4383 33.0767 13.4691C33.2228 13.5011 33.3708 13.5248 33.5198 13.5403C33.6667 13.5584 33.8147 13.5671 33.9629 13.5664C34.1094 13.5653 34.2557 13.5558 34.401 13.5379L34.6139 13.5023L34.8243 13.4478C34.9601 13.405 35.0925 13.3527 35.2203 13.2912C35.284 13.2618 35.3453 13.2277 35.4035 13.1892C35.4655 13.1546 35.5243 13.1149 35.5792 13.0706C35.6928 12.9859 35.8003 12.894 35.901 12.7954C36 12.6931 36.0918 12.5845 36.1757 12.4705C36.263 12.3558 36.3416 12.2353 36.4109 12.1099C36.4876 11.9889 36.5396 11.8513 36.6064 11.7232C36.6733 11.5951 36.7129 11.4528 36.7673 11.3176L37.0767 10.5396L37.2302 11.3508C37.2561 11.4835 37.2917 11.6143 37.3366 11.7422C37.4671 12.1389 37.6663 12.5118 37.9257 12.8453C38.0968 13.063 38.2993 13.2563 38.5272 13.4193C38.6396 13.5013 38.7588 13.5743 38.8837 13.6375C39.0085 13.7025 39.1384 13.758 39.2723 13.8036C39.4066 13.8485 39.5439 13.885 39.6832 13.9127C39.8246 13.94 39.9676 13.959 40.1114 13.9696C40.2557 13.9768 40.4003 13.9768 40.5446 13.9696C40.6906 13.9696 40.8366 13.9507 40.9827 13.9388C41.1287 13.9269 41.2748 13.8937 41.4183 13.8724L41.8515 13.7728L42.2797 13.6494L42.703 13.5047L43.2896 13.3031L42.953 13.8036C42.8911 13.8914 42.8292 13.9981 42.7723 14.1001C42.7154 14.2021 42.6634 14.3065 42.6139 14.4156C42.5165 14.6283 42.4395 14.849 42.3837 15.075C42.3283 15.2981 42.3009 15.5266 42.302 15.7558C42.3046 15.9805 42.3456 16.2033 42.4233 16.4153L42.4901 16.5718L42.5743 16.745C42.6348 16.8412 42.7035 16.9324 42.7797 17.0178C42.8561 17.1025 42.9388 17.1818 43.0272 17.255C43.1189 17.3314 43.2156 17.4019 43.3168 17.4661C43.4172 17.5318 43.5213 17.592 43.6287 17.6464C43.7352 17.7034 43.849 17.746 43.9604 17.7982L44.3069 17.924L44.6634 18.0307L44.9109 18.1066L44.703 18.2608C44.563 18.365 44.4314 18.4792 44.3094 18.6024C44.1862 18.7259 44.0721 18.8575 43.9678 18.9962C43.9109 19.0649 43.8664 19.1385 43.8168 19.2096C43.7691 19.2813 43.7262 19.3558 43.6881 19.4326C43.6447 19.5085 43.6082 19.5879 43.5792 19.6698C43.5449 19.7465 43.5175 19.8259 43.4975 19.9071C43.4802 19.9901 43.4505 20.0707 43.4406 20.1443L43.4159 20.3981C43.4159 20.4835 43.4159 20.5689 43.4307 20.6543C43.4357 20.7394 43.4506 20.8238 43.4753 20.9057C43.4915 20.9865 43.5146 21.0658 43.5446 21.1429L43.6461 21.3801C43.6802 21.4629 43.7224 21.5423 43.7723 21.6173L43.9109 21.8546L43.9629 21.9376H43.8664C43.5003 21.9385 43.1359 21.9848 42.7822 22.0752C42.6051 22.1201 42.4339 22.1846 42.2723 22.2673C42.2321 22.288 42.1932 22.3109 42.156 22.3361C42.1157 22.3579 42.0783 22.3842 42.0446 22.4144C42.0077 22.4403 41.9729 22.4688 41.9406 22.4998L41.8441 22.597L41.9357 22.495C41.9656 22.4613 41.9987 22.4303 42.0347 22.4025C42.0682 22.3709 42.1046 22.3424 42.1436 22.3171C42.1807 22.2934 42.2178 22.2649 42.2574 22.2436C42.4175 22.1516 42.5877 22.0769 42.7649 22.0206C43.1212 21.9097 43.4919 21.8466 43.8664 21.8332L43.8243 21.9162L43.6708 21.679C43.6151 21.6046 43.567 21.5251 43.5272 21.4418L43.4109 21.2046C43.374 21.1205 43.3458 21.0331 43.3267 20.9437C43.2958 20.8569 43.2759 20.7669 43.2673 20.6756C43.2673 20.5855 43.2451 20.493 43.2426 20.4028V20.1253C43.2426 20.0351 43.2772 19.945 43.2921 19.8549C43.3109 19.7644 43.3374 19.6755 43.3713 19.5892C43.3984 19.5008 43.434 19.415 43.4777 19.333C43.515 19.2512 43.558 19.172 43.6065 19.0958C43.6515 19.0142 43.7011 18.935 43.755 18.8586C43.8617 18.7073 43.98 18.5638 44.1089 18.4292C44.238 18.2919 44.3778 18.1642 44.5272 18.0473L44.5743 18.2845L44.2005 18.1825L43.8317 18.0568C43.7104 18.007 43.5842 17.9619 43.4703 17.9026C43.3516 17.8471 43.2367 17.7845 43.1263 17.7152C43.0131 17.6471 42.9047 17.5718 42.802 17.4899C42.7003 17.4074 42.6059 17.3169 42.5198 17.2194C42.4275 17.1217 42.3447 17.0161 42.2723 16.9039L42.1708 16.7332L42.0891 16.5505C41.9938 16.309 41.9403 16.0542 41.9307 15.7962C41.9209 15.5373 41.9451 15.2783 42.0025 15.0252C42.0574 14.7764 42.1353 14.5327 42.2352 14.297C42.2847 14.1784 42.3391 14.0598 42.3985 13.9507C42.4579 13.8415 42.5198 13.7277 42.5965 13.6114L42.8441 13.9103L42.4035 14.0645L41.9555 14.1974C41.802 14.2377 41.6485 14.2709 41.4951 14.3065C41.3416 14.3421 41.1857 14.3634 41.0272 14.38C40.8688 14.401 40.7094 14.4137 40.5495 14.418C40.3846 14.4267 40.2194 14.4267 40.0545 14.418C39.8932 14.4067 39.7329 14.3862 39.5743 14.3563C39.4142 14.3255 39.2563 14.285 39.1015 14.2353C38.9471 14.1826 38.7966 14.12 38.651 14.0479C38.5047 13.9751 38.3648 13.891 38.2327 13.7965C37.9687 13.6102 37.7337 13.389 37.5347 13.1394C37.337 12.8936 37.1708 12.626 37.0396 12.3424C36.9727 12.2017 36.914 12.0576 36.8639 11.9106C36.8104 11.7609 36.7674 11.608 36.7351 11.4528L37.198 11.486C37.1411 11.6331 37.0891 11.7825 37.0272 11.9272C36.9638 12.0737 36.8928 12.217 36.8144 12.3566C36.7422 12.4989 36.6594 12.636 36.5668 12.767C36.4698 12.8998 36.364 13.0266 36.25 13.1465C36.1318 13.2648 36.0044 13.3742 35.8688 13.4739C35.802 13.5254 35.7308 13.5714 35.6559 13.6114C35.5845 13.6571 35.5101 13.6983 35.4332 13.7348C35.2792 13.8082 35.1194 13.8701 34.9554 13.9198L34.7079 13.9791L34.4604 14.0218C34.2962 14.0418 34.1308 14.0506 33.9653 14.0479C33.7998 14.0482 33.6344 14.0379 33.4703 14.0171C33.3038 13.9981 33.1385 13.9704 32.9752 13.9341C32.8143 13.9008 32.6559 13.8581 32.5 13.8107C32.1899 13.7177 31.8871 13.6035 31.594 13.4691C31.4455 13.4051 31.302 13.3339 31.1609 13.2604C31.0198 13.1868 30.8812 13.1086 30.7351 13.0232L31.0594 12.7409C31.1312 12.8832 31.2079 13.0208 31.2723 13.1679C31.3385 13.3128 31.3972 13.4609 31.448 13.6114L31.5223 13.8487L31.5767 14.0859C31.61 14.2427 31.6348 14.401 31.651 14.5603C31.6606 14.7183 31.6606 14.8767 31.651 15.0347C31.6434 15.194 31.6236 15.3526 31.5916 15.5091L31.5371 15.7464L31.4629 15.9836C31.4088 16.1361 31.3443 16.2851 31.2698 16.4295C31.1976 16.5733 31.1148 16.712 31.0223 16.8446C30.9317 16.9743 30.8342 17.0994 30.7302 17.2194C30.6237 17.3428 30.5148 17.4567 30.401 17.5729C30.2871 17.6891 30.1658 17.7911 30.0445 17.8955C29.7977 18.099 29.5373 18.2868 29.2648 18.4577C29.1279 18.5431 28.9893 18.6222 28.849 18.6949C28.7054 18.7708 28.5643 18.842 28.4084 18.9084L28.4257 18.6261C28.5421 18.702 28.6732 18.7708 28.7772 18.8491C28.8812 18.9274 29.0049 19.008 29.1064 19.1029L29.2648 19.2405L29.4109 19.3876C29.5061 19.4887 29.5953 19.5948 29.6782 19.7054C29.7601 19.8182 29.8337 19.9363 29.8985 20.0589C29.9642 20.1796 30.0205 20.3049 30.0668 20.4337L30.1287 20.6305L30.1732 20.8298C30.1995 20.9638 30.216 21.0993 30.2228 21.2354C30.2403 21.773 30.1426 22.3083 29.9356 22.8082C29.7384 23.3032 29.4728 23.7707 29.146 24.1982L29.0742 24.1033L29.2401 24.0583C29.297 24.0417 29.3539 24.0345 29.4109 24.0227C29.5223 23.999 29.6361 23.9918 29.75 23.9776C29.9775 23.9646 30.2056 23.9646 30.4331 23.9776C30.8857 24.0006 31.3354 24.0609 31.7772 24.1579Z" fill="#52608E"/>
<path opacity="0.7" d="M31.7772 24.1579C31.3338 24.0798 30.884 24.0393 30.4331 24.0369C30.209 24.0356 29.985 24.0475 29.7624 24.0725C29.651 24.0891 29.5396 24.101 29.4331 24.127C29.3787 24.1413 29.3242 24.1484 29.2723 24.1674L29.1163 24.2148L28.9381 24.2694L29.0445 24.1199C29.3447 23.694 29.5837 23.2312 29.7549 22.7441C29.84 22.5025 29.9022 22.254 29.9406 22.0016C29.9595 21.8766 29.9711 21.7507 29.9752 21.6245C29.9827 21.4988 29.9827 21.3729 29.9752 21.2473C29.9658 21.1229 29.9476 20.9993 29.9208 20.8772L29.8737 20.697L29.8119 20.5191C29.7679 20.4028 29.7141 20.2901 29.651 20.1822C29.5901 20.0734 29.5215 19.9688 29.4455 19.8691C29.369 19.7696 29.2863 19.6745 29.198 19.5844L29.0619 19.4516L28.9133 19.3283C28.8168 19.2429 28.7029 19.1764 28.6015 19.091C28.5 19.0056 28.3787 18.9582 28.2673 18.8894L28.0198 18.7329L28.2945 18.6071C28.4257 18.5455 28.5643 18.4719 28.6955 18.396C28.8267 18.3201 28.9579 18.2418 29.0866 18.1588C29.3417 17.9921 29.5841 17.8082 29.8119 17.6085C29.9232 17.5088 30.0322 17.4068 30.1386 17.3001C30.245 17.1933 30.3416 17.0795 30.4331 16.9656C30.5247 16.8518 30.6138 16.7284 30.6807 16.6074C30.7606 16.4861 30.8325 16.3602 30.896 16.2303C30.9614 16.1012 31.0177 15.9681 31.0643 15.8317L31.1287 15.6277L31.1757 15.4166C31.2033 15.2773 31.2199 15.1361 31.2252 14.9944C31.2384 14.7084 31.2117 14.422 31.146 14.1428L31.0965 13.9317L31.0272 13.7253C30.9851 13.5854 30.9183 13.4549 30.8638 13.3197C30.8094 13.1845 30.7302 13.0587 30.6633 12.9259L30.3094 12.2143L30.9876 12.6318C31.1064 12.7077 31.2351 12.7812 31.3762 12.85C31.5173 12.9188 31.6485 12.9852 31.7871 13.0445C32.0631 13.1681 32.3476 13.2735 32.6386 13.36C32.7846 13.4003 32.9307 13.4383 33.0767 13.4691C33.2228 13.5011 33.3708 13.5248 33.5198 13.5403C33.6667 13.5584 33.8147 13.5671 33.9629 13.5664C34.1094 13.5653 34.2557 13.5558 34.401 13.5379L34.6139 13.5023L34.8243 13.4478C34.9601 13.405 35.0925 13.3527 35.2203 13.2912C35.284 13.2618 35.3453 13.2277 35.4035 13.1892C35.4655 13.1546 35.5243 13.1149 35.5792 13.0706C35.6928 12.9859 35.8003 12.894 35.901 12.7954C36 12.6931 36.0918 12.5845 36.1757 12.4705C36.263 12.3558 36.3416 12.2353 36.4109 12.1099C36.4876 11.9889 36.5396 11.8513 36.6064 11.7232C36.6733 11.5951 36.7129 11.4528 36.7673 11.3176L37.0767 10.5396L37.2302 11.3508C37.2561 11.4835 37.2917 11.6143 37.3366 11.7422C37.4671 12.1389 37.6663 12.5118 37.9257 12.8453C38.0968 13.063 38.2993 13.2563 38.5272 13.4193C38.6396 13.5013 38.7588 13.5743 38.8837 13.6375C39.0085 13.7025 39.1384 13.758 39.2723 13.8036C39.4066 13.8485 39.5439 13.885 39.6832 13.9127C39.8246 13.94 39.9676 13.959 40.1114 13.9696C40.2557 13.9768 40.4003 13.9768 40.5446 13.9696C40.6906 13.9696 40.8366 13.9507 40.9827 13.9388C41.1287 13.9269 41.2748 13.8937 41.4183 13.8724L41.8515 13.7728L42.2797 13.6494L42.703 13.5047L43.2896 13.3031L42.953 13.8036C42.8911 13.8914 42.8292 13.9981 42.7723 14.1001C42.7154 14.2021 42.6634 14.3065 42.6139 14.4156C42.5165 14.6283 42.4395 14.849 42.3837 15.075C42.3283 15.2981 42.3009 15.5266 42.302 15.7558C42.3046 15.9805 42.3456 16.2033 42.4233 16.4153L42.4901 16.5718L42.5743 16.745C42.6348 16.8412 42.7035 16.9324 42.7797 17.0178C42.8561 17.1025 42.9388 17.1818 43.0272 17.255C43.1189 17.3314 43.2156 17.4019 43.3168 17.4661C43.4172 17.5318 43.5213 17.592 43.6287 17.6464C43.7352 17.7034 43.849 17.746 43.9604 17.7982L44.3069 17.924L44.6634 18.0307L44.9109 18.1066L44.703 18.2608C44.563 18.365 44.4314 18.4792 44.3094 18.6024C44.1862 18.7259 44.0721 18.8575 43.9678 18.9962C43.9109 19.0649 43.8664 19.1385 43.8168 19.2096C43.7691 19.2813 43.7262 19.3558 43.6881 19.4326C43.6447 19.5085 43.6082 19.5879 43.5792 19.6698C43.5449 19.7465 43.5175 19.8259 43.4975 19.9071C43.4802 19.9901 43.4505 20.0707 43.4406 20.1443L43.4159 20.3981C43.4159 20.4835 43.4159 20.5689 43.4307 20.6543C43.4357 20.7394 43.4506 20.8238 43.4753 20.9057C43.4915 20.9865 43.5146 21.0658 43.5446 21.1429L43.6461 21.3801C43.6802 21.4629 43.7224 21.5423 43.7723 21.6173L43.9109 21.8546L43.9629 21.9376H43.8664C43.5003 21.9385 43.1359 21.9848 42.7822 22.0752C42.6051 22.1201 42.4339 22.1846 42.2723 22.2673C42.2321 22.288 42.1932 22.3109 42.156 22.3361C42.1157 22.3579 42.0783 22.3842 42.0446 22.4144C42.0077 22.4403 41.9729 22.4688 41.9406 22.4998L41.8441 22.597L41.9357 22.495C41.9656 22.4613 41.9987 22.4303 42.0347 22.4025C42.0682 22.3709 42.1046 22.3424 42.1436 22.3171C42.1807 22.2934 42.2178 22.2649 42.2574 22.2436C42.4175 22.1516 42.5877 22.0769 42.7649 22.0206C43.1212 21.9097 43.4919 21.8466 43.8664 21.8332L43.8243 21.9162L43.6708 21.679C43.6151 21.6046 43.567 21.5251 43.5272 21.4418L43.4109 21.2046C43.374 21.1205 43.3458 21.0331 43.3267 20.9437C43.2958 20.8569 43.2759 20.7669 43.2673 20.6756C43.2673 20.5855 43.2451 20.493 43.2426 20.4028V20.1253C43.2426 20.0351 43.2772 19.945 43.2921 19.8549C43.3109 19.7644 43.3374 19.6755 43.3713 19.5892C43.3984 19.5008 43.434 19.415 43.4777 19.333C43.515 19.2512 43.558 19.172 43.6065 19.0958C43.6515 19.0142 43.7011 18.935 43.755 18.8586C43.8617 18.7073 43.98 18.5638 44.1089 18.4292C44.238 18.2919 44.3778 18.1642 44.5272 18.0473L44.5743 18.2845L44.2005 18.1825L43.8317 18.0568C43.7104 18.007 43.5842 17.9619 43.4703 17.9026C43.3516 17.8471 43.2367 17.7845 43.1263 17.7152C43.0131 17.6471 42.9047 17.5718 42.802 17.4899C42.7003 17.4074 42.6059 17.3169 42.5198 17.2194C42.4275 17.1217 42.3447 17.0161 42.2723 16.9039L42.1708 16.7332L42.0891 16.5505C41.9938 16.309 41.9403 16.0542 41.9307 15.7962C41.9209 15.5373 41.9451 15.2783 42.0025 15.0252C42.0574 14.7764 42.1353 14.5327 42.2352 14.297C42.2847 14.1784 42.3391 14.0598 42.3985 13.9507C42.4579 13.8415 42.5198 13.7277 42.5965 13.6114L42.8441 13.9103L42.4035 14.0645L41.9555 14.1974C41.802 14.2377 41.6485 14.2709 41.4951 14.3065C41.3416 14.3421 41.1857 14.3634 41.0272 14.38C40.8688 14.401 40.7094 14.4137 40.5495 14.418C40.3846 14.4267 40.2194 14.4267 40.0545 14.418C39.8932 14.4067 39.7329 14.3862 39.5743 14.3563C39.4142 14.3255 39.2563 14.285 39.1015 14.2353C38.9471 14.1826 38.7966 14.12 38.651 14.0479C38.5047 13.9751 38.3648 13.891 38.2327 13.7965C37.9687 13.6102 37.7337 13.389 37.5347 13.1394C37.337 12.8936 37.1708 12.626 37.0396 12.3424C36.9727 12.2017 36.914 12.0576 36.8639 11.9106C36.8104 11.7609 36.7674 11.608 36.7351 11.4528L37.198 11.486C37.1411 11.6331 37.0891 11.7825 37.0272 11.9272C36.9638 12.0737 36.8928 12.217 36.8144 12.3566C36.7422 12.4989 36.6594 12.636 36.5668 12.767C36.4698 12.8998 36.364 13.0266 36.25 13.1465C36.1318 13.2648 36.0044 13.3742 35.8688 13.4739C35.802 13.5254 35.7308 13.5714 35.6559 13.6114C35.5845 13.6571 35.5101 13.6983 35.4332 13.7348C35.2792 13.8082 35.1194 13.8701 34.9554 13.9198L34.7079 13.9791L34.4604 14.0218C34.2962 14.0418 34.1308 14.0506 33.9653 14.0479C33.7998 14.0482 33.6344 14.0379 33.4703 14.0171C33.3038 13.9981 33.1385 13.9704 32.9752 13.9341C32.8143 13.9008 32.6559 13.8581 32.5 13.8107C32.1899 13.7177 31.8871 13.6035 31.594 13.4691C31.4455 13.4051 31.302 13.3339 31.1609 13.2604C31.0198 13.1868 30.8812 13.1086 30.7351 13.0232L31.0594 12.7409C31.1312 12.8832 31.2079 13.0208 31.2723 13.1679C31.3385 13.3128 31.3972 13.4609 31.448 13.6114L31.5223 13.8487L31.5767 14.0859C31.61 14.2427 31.6348 14.401 31.651 14.5603C31.6606 14.7183 31.6606 14.8767 31.651 15.0347C31.6434 15.194 31.6236 15.3526 31.5916 15.5091L31.5371 15.7464L31.4629 15.9836C31.4088 16.1361 31.3443 16.2851 31.2698 16.4295C31.1976 16.5733 31.1148 16.712 31.0223 16.8446C30.9317 16.9743 30.8342 17.0994 30.7302 17.2194C30.6237 17.3428 30.5148 17.4567 30.401 17.5729C30.2871 17.6891 30.1658 17.7911 30.0445 17.8955C29.7977 18.099 29.5373 18.2868 29.2648 18.4577C29.1279 18.5431 28.9893 18.6222 28.849 18.6949C28.7054 18.7708 28.5643 18.842 28.4084 18.9084L28.4257 18.6261C28.5421 18.702 28.6732 18.7708 28.7772 18.8491C28.8812 18.9274 29.0049 19.008 29.1064 19.1029L29.2648 19.2405L29.4109 19.3876C29.5061 19.4887 29.5953 19.5948 29.6782 19.7054C29.7601 19.8182 29.8337 19.9363 29.8985 20.0589C29.9642 20.1796 30.0205 20.3049 30.0668 20.4337L30.1287 20.6305L30.1732 20.8298C30.1995 20.9638 30.216 21.0993 30.2228 21.2354C30.2403 21.773 30.1426 22.3083 29.9356 22.8082C29.7384 23.3032 29.4728 23.7707 29.146 24.1982L29.0742 24.1033L29.2401 24.0583C29.297 24.0417 29.3539 24.0345 29.4109 24.0227C29.5223 23.999 29.6361 23.9918 29.75 23.9776C29.9775 23.9646 30.2056 23.9646 30.4331 23.9776C30.8857 24.0006 31.3354 24.0609 31.7772 24.1579Z" fill="white"/>
</g>
</svg>
